<?xml version="1.0" encoding="UTF-8"?><svg id="Capa_2" xmlns="http://www.w3.org/2000/svg" viewBox="0 0 267.5 60.33"><defs><style>.cls-1{fill:#e10d1b;}.cls-2{fill:#585856;}</style></defs><g id="Capa_1-2"><g><g><path class="cls-2" d="M57.38,2.7v6.44h7.71v2.32h-7.71v8.15h-2.86V.39h11.92V2.7h-9.05Z"/><path class="cls-2" d="M72.34,1.81c0,.24-.05,.47-.15,.69-.1,.22-.23,.41-.39,.58-.17,.17-.36,.29-.58,.39-.22,.09-.45,.14-.7,.14s-.47-.05-.68-.14c-.21-.09-.4-.22-.57-.39-.17-.17-.29-.36-.39-.58-.09-.22-.14-.45-.14-.69s.05-.48,.14-.7c.09-.22,.22-.41,.39-.58,.17-.17,.35-.29,.57-.39,.21-.09,.44-.14,.68-.14s.47,.05,.7,.14c.22,.09,.42,.22,.58,.39,.17,.17,.3,.36,.39,.58,.1,.22,.15,.45,.15,.7Zm-.5,4.2v13.6h-2.61V6.01h2.61Z"/><path class="cls-2" d="M78.1,8.62c.44-.89,.96-1.59,1.58-2.1,.62-.51,1.36-.76,2.22-.76,.29,0,.57,.03,.84,.1,.26,.07,.49,.17,.69,.3l-.17,1.97c-.06,.24-.21,.36-.44,.36-.13,0-.31-.02-.56-.07-.25-.05-.52-.07-.8-.07-.42,0-.79,.06-1.11,.18-.32,.12-.61,.3-.86,.54-.25,.24-.48,.53-.68,.87-.2,.34-.38,.73-.55,1.17v8.51h-2.61V6.01h1.5c.29,0,.48,.05,.58,.15,.1,.1,.18,.28,.22,.54l.16,1.91Z"/><path class="cls-2" d="M85.45,19.61V6.01h1.57c.37,0,.59,.17,.68,.52l.19,1.3c.5-.6,1.06-1.09,1.67-1.47,.61-.38,1.33-.57,2.15-.57,.9,0,1.63,.25,2.2,.74,.56,.5,.97,1.17,1.23,2.02,.2-.48,.45-.9,.76-1.25,.31-.35,.66-.63,1.04-.86,.38-.22,.79-.39,1.23-.5,.43-.11,.87-.16,1.32-.16,.72,0,1.37,.11,1.93,.34s1.05,.56,1.44,1c.39,.44,.69,.98,.9,1.62,.21,.64,.31,1.37,.31,2.2v8.66h-2.62V10.95c0-1.02-.22-1.78-.66-2.3-.44-.52-1.09-.78-1.93-.78-.37,0-.73,.06-1.07,.19-.34,.13-.64,.32-.89,.58s-.46,.58-.6,.96c-.15,.38-.22,.83-.22,1.34v8.66h-2.62V10.95c0-1.05-.21-1.83-.63-2.33-.42-.5-1.04-.75-1.85-.75-.56,0-1.08,.15-1.57,.44-.48,.29-.92,.7-1.33,1.2v10.09h-2.61Z"/><path class="cls-2" d="M107.23,7.91c.76-.72,1.58-1.26,2.47-1.62,.89-.36,1.86-.54,2.93-.54,.78,0,1.46,.13,2.06,.38s1.1,.61,1.51,1.06c.41,.45,.72,1,.93,1.63,.21,.63,.31,1.33,.31,2.1v8.68h-1.16c-.26,0-.46-.04-.59-.13-.13-.08-.24-.24-.32-.48l-.28-1.19c-.35,.32-.69,.6-1.03,.85-.34,.25-.69,.45-1.06,.63-.37,.17-.77,.31-1.18,.39-.42,.09-.88,.13-1.39,.13-.54,0-1.04-.07-1.51-.22-.47-.15-.88-.37-1.23-.68s-.62-.68-.82-1.14c-.2-.46-.3-.99-.3-1.59,0-.54,.14-1.05,.44-1.55,.29-.5,.76-.94,1.42-1.33,.66-.39,1.51-.71,2.57-.96s2.36-.39,3.9-.43v-.99c0-1.03-.22-1.79-.66-2.3-.44-.51-1.08-.76-1.93-.76-.57,0-1.05,.07-1.44,.21-.39,.14-.72,.3-1,.48s-.53,.33-.74,.48-.43,.21-.65,.21c-.18,0-.33-.05-.46-.15-.13-.1-.23-.21-.31-.35l-.47-.84Zm7.66,5.66c-1.06,.04-1.96,.12-2.7,.25-.74,.13-1.34,.3-1.81,.52s-.8,.47-1,.76-.31,.61-.31,.97,.06,.63,.17,.88c.11,.25,.26,.45,.46,.6,.19,.16,.42,.27,.68,.34,.26,.07,.54,.11,.84,.11,.4,0,.77-.04,1.1-.12,.33-.08,.65-.19,.94-.34,.29-.15,.58-.33,.84-.54s.53-.46,.79-.74v-2.68Z"/></g><g><path class="cls-2" d="M173.22,22.78c-.36,.51-.73,.88-1.1,1.11-.37,.23-.81,.35-1.32,.35s-.98-.16-1.46-.48c-.49-.32-1.03-.67-1.64-1.05-.6-.38-1.3-.73-2.08-1.05-.78-.32-1.71-.48-2.77-.48-.98,0-1.83,.14-2.56,.41-.73,.28-1.34,.66-1.83,1.14-.49,.49-.85,1.06-1.1,1.72-.24,.66-.37,1.38-.37,2.16,0,.85,.24,1.56,.72,2.13,.48,.57,1.11,1.08,1.91,1.51,.79,.43,1.69,.83,2.69,1.19,1,.36,2.02,.75,3.07,1.18,1.05,.42,2.08,.91,3.08,1.46,1.01,.55,1.91,1.24,2.7,2.07,.79,.83,1.43,1.82,1.91,2.99,.48,1.17,.72,2.57,.72,4.2,0,2.33-.4,4.53-1.21,6.58-.81,2.06-1.96,3.85-3.47,5.39-1.5,1.54-3.33,2.76-5.48,3.66-2.15,.9-4.57,1.35-7.27,1.35-1.34,0-2.68-.15-4.02-.44-1.35-.3-2.64-.72-3.88-1.26s-2.39-1.18-3.45-1.92c-1.06-.74-1.96-1.57-2.7-2.48l3.69-4.83c.28-.36,.64-.66,1.08-.89,.45-.23,.89-.35,1.34-.35,.59,0,1.17,.21,1.73,.62,.56,.41,1.18,.87,1.86,1.37,.68,.5,1.47,.95,2.37,1.37,.9,.41,2.01,.62,3.32,.62,1.93,0,3.42-.52,4.47-1.57,1.05-1.05,1.57-2.6,1.57-4.66,0-.95-.24-1.74-.72-2.35-.48-.61-1.1-1.13-1.88-1.56-.77-.42-1.66-.8-2.65-1.13-1-.33-2.01-.68-3.05-1.06-1.04-.38-2.06-.83-3.05-1.35-1-.52-1.88-1.2-2.66-2.04-.77-.84-1.4-1.87-1.88-3.08-.48-1.22-.72-2.72-.72-4.5,0-2.06,.39-4.03,1.16-5.93,.77-1.9,1.88-3.58,3.32-5.04,1.44-1.46,3.19-2.63,5.25-3.5,2.06-.87,4.37-1.3,6.93-1.3,1.31,0,2.59,.14,3.83,.41,1.24,.28,2.4,.66,3.48,1.14,1.08,.49,2.07,1.07,2.96,1.73,.89,.67,1.64,1.39,2.26,2.18l-3.12,4.26Z"/><path class="cls-2" d="M176.44,59.82l5.79-47.6h9.86l-2.32,18.95c1.5-1.65,3.09-2.87,4.77-3.66,1.67-.78,3.4-1.18,5.18-1.18,1.23,0,2.37,.22,3.42,.67s1.94,1.1,2.69,1.96c.74,.86,1.32,1.91,1.75,3.16,.42,1.25,.64,2.69,.64,4.32,0,.38-.02,.77-.05,1.18s-.07,.82-.11,1.24l-2.48,20.95h-9.86l2.48-20.95c.04-.34,.07-.65,.1-.94,.02-.29,.03-.56,.03-.81,0-1.14-.2-1.94-.6-2.38-.4-.45-1.01-.67-1.81-.67-.66,0-1.35,.2-2.07,.59-.72,.39-1.42,.95-2.08,1.67-.67,.72-1.29,1.59-1.88,2.61-.58,1.02-1.07,2.15-1.45,3.4l-2.13,17.49h-9.86Z"/><path class="cls-2" d="M224.39,60.33c-1.84,0-3.57-.31-5.17-.92-1.6-.61-2.99-1.51-4.17-2.69-1.18-1.18-2.1-2.63-2.77-4.36-.67-1.73-1-3.71-1-5.96,0-2.93,.48-5.61,1.45-8.06,.96-2.45,2.26-4.56,3.89-6.34s3.52-3.17,5.68-4.17c2.15-1,4.41-1.49,6.79-1.49,1.84,0,3.56,.31,5.15,.92,1.59,.62,2.97,1.51,4.15,2.69,1.18,1.18,2.1,2.63,2.78,4.36,.68,1.73,1.02,3.72,1.02,5.96,0,2.88-.48,5.55-1.45,8-.96,2.45-2.26,4.57-3.9,6.36-1.63,1.79-3.52,3.19-5.68,4.2-2.15,1.01-4.41,1.51-6.79,1.51Zm.89-7.31c1.1,0,2.09-.33,2.96-1,.87-.67,1.61-1.58,2.21-2.73,.6-1.16,1.07-2.5,1.4-4.04,.33-1.54,.49-3.17,.49-4.91,0-2.4-.32-4.11-.97-5.13-.65-1.03-1.7-1.54-3.16-1.54-1.1,0-2.09,.33-2.96,1-.87,.67-1.61,1.57-2.21,2.72s-1.07,2.49-1.4,4.04c-.33,1.55-.49,3.19-.49,4.93,0,2.35,.32,4.05,.97,5.1,.65,1.05,1.7,1.57,3.16,1.57Z"/><path class="cls-2" d="M247.47,52.7v-.54c0-.21,.02-.51,.05-.91,.03-.39,.08-.91,.16-1.56,.07-.65,.17-1.5,.3-2.56l1.69-13.48h-2.64c-.4,0-.74-.13-1.02-.4-.28-.27-.41-.66-.41-1.19,0-.02,.02-.21,.06-.56s.08-.72,.13-1.11c.04-.39,.08-.76,.13-1.1,.04-.34,.06-.53,.06-.57l.1-.86,4.99-1.02,2.77-8.04c.32-1.02,1.04-1.53,2.16-1.53h5.34l-1.21,9.63h7.38l-.83,6.74h-7.38l-1.59,12.94c-.11,.87-.19,1.55-.24,2.05-.05,.5-.1,.88-.13,1.14-.03,.27-.05,.45-.06,.54-.01,.1-.02,.15-.02,.17,0,.62,.14,1.13,.43,1.54s.74,.62,1.35,.62c.34,0,.62-.04,.84-.11,.22-.07,.42-.16,.59-.25,.17-.1,.33-.18,.48-.25,.15-.07,.32-.11,.51-.11,.3,0,.52,.07,.67,.21,.15,.14,.29,.36,.41,.65l2.16,4.67c-1.31,.95-2.72,1.67-4.23,2.15-1.51,.48-3.02,.72-4.55,.72-1.27,0-2.42-.17-3.43-.52-1.02-.35-1.89-.86-2.62-1.53-.73-.67-1.3-1.47-1.72-2.4-.41-.93-.64-1.99-.68-3.18Z"/></g><g><path class="cls-1" d="M48.14,36.64c0,3.35-.58,6.47-1.73,9.35-1.16,2.88-2.78,5.39-4.88,7.52-2.1,2.13-4.63,3.8-7.58,5.01-2.96,1.21-6.24,1.81-9.84,1.81s-6.89-.6-9.86-1.81c-2.97-1.21-5.51-2.88-7.62-5.01-2.11-2.13-3.74-4.64-4.9-7.52-1.16-2.88-1.73-6-1.73-9.35s.58-6.47,1.73-9.35c1.16-2.88,2.79-5.38,4.9-7.5,2.11-2.12,4.65-3.78,7.62-4.99,2.97-1.21,6.25-1.81,9.86-1.81s6.88,.61,9.84,1.83c2.96,1.22,5.49,2.89,7.58,5.01,2.1,2.12,3.72,4.62,4.88,7.5,1.16,2.88,1.73,5.99,1.73,9.32Zm-11,0c0-2.29-.3-4.35-.89-6.18-.59-1.83-1.45-3.39-2.56-4.66-1.11-1.27-2.47-2.25-4.09-2.93-1.61-.68-3.45-1.02-5.5-1.02s-3.93,.34-5.55,1.02c-1.62,.68-2.99,1.65-4.1,2.93-1.11,1.27-1.97,2.83-2.56,4.66-.59,1.83-.89,3.9-.89,6.18s.3,4.38,.89,6.22c.59,1.83,1.45,3.39,2.56,4.66,1.11,1.27,2.48,2.24,4.1,2.91,1.62,.67,3.47,1,5.55,1s3.89-.33,5.5-1c1.61-.67,2.97-1.64,4.09-2.91,1.11-1.27,1.97-2.82,2.56-4.66,.59-1.83,.89-3.91,.89-6.22Z"/><path class="cls-1" d="M53.29,59.82V26.85h6.11c.61,0,1.13,.14,1.54,.41,.41,.28,.7,.69,.87,1.24l.57,1.91c.64-.59,1.29-1.14,1.97-1.65,.68-.51,1.4-.94,2.18-1.29s1.61-.63,2.51-.83c.9-.2,1.88-.3,2.94-.3,1.8,0,3.4,.31,4.79,.94,1.39,.63,2.56,1.49,3.51,2.61s1.67,2.44,2.16,3.97c.49,1.54,.73,3.21,.73,5.01v20.95h-9.86v-20.95c0-1.61-.37-2.87-1.11-3.77-.74-.9-1.83-1.35-3.28-1.35-1.08,0-2.1,.23-3.05,.7-.95,.47-1.87,1.09-2.73,1.88v23.5h-9.86Z"/><path class="cls-1" d="M104.29,26.34c2.18,0,4.18,.34,5.99,1.02,1.81,.68,3.37,1.66,4.67,2.96,1.3,1.29,2.32,2.88,3.05,4.75,.73,1.88,1.1,4,1.1,6.38,0,.74-.03,1.35-.1,1.81-.06,.47-.18,.84-.35,1.11-.17,.28-.4,.47-.68,.57-.29,.11-.65,.16-1.1,.16h-19.01c.32,2.76,1.16,4.75,2.51,5.99,1.36,1.24,3.11,1.86,5.25,1.86,1.14,0,2.13-.14,2.96-.41,.83-.28,1.56-.58,2.21-.92,.65-.34,1.24-.65,1.78-.92,.54-.28,1.11-.41,1.7-.41,.78,0,1.38,.29,1.78,.86l2.86,3.53c-1.02,1.17-2.11,2.11-3.29,2.85-1.18,.73-2.38,1.3-3.62,1.72-1.24,.41-2.48,.7-3.72,.86-1.24,.16-2.42,.24-3.55,.24-2.31,0-4.48-.38-6.5-1.13-2.02-.75-3.79-1.87-5.31-3.35-1.52-1.48-2.71-3.33-3.59-5.53-.88-2.2-1.32-4.77-1.32-7.69,0-2.2,.38-4.29,1.13-6.26,.75-1.97,1.83-3.7,3.24-5.18,1.41-1.48,3.12-2.66,5.12-3.53,2-.87,4.27-1.3,6.79-1.3Zm.19,6.8c-1.89,0-3.36,.54-4.42,1.61-1.06,1.07-1.76,2.61-2.1,4.63h12.3c0-.78-.1-1.55-.3-2.29-.2-.74-.53-1.4-.99-1.99-.46-.58-1.05-1.05-1.8-1.41-.74-.36-1.64-.54-2.7-.54Z"/><path class="cls-1" d="M124.13,36.51h17.17v7.95h-17.17v-7.95Z"/></g></g></g></svg>